<svg width="640" height="240" viewBox="0 0 640 240" fill="none" xmlns="http://www.w3.org/2000/svg">
  <rect x="16" y="16" width="608" height="208" rx="36" fill="white" fill-opacity="0.02"/>
  <rect x="16" y="16" width="608" height="208" rx="36" stroke="rgba(255,255,255,0.18)" stroke-width="2"/>
  <g transform="translate(56,54)">
    <rect x="0" y="0" width="92" height="92" rx="22" fill="rgba(253,184,19,0.18)" stroke="rgba(253,184,19,0.6)" stroke-width="2"/>
    <path d="M46 18C50 18 52 20 52 24V40H68C72 40 74 42 74 46C74 50 72 52 68 52H52V68C52 72 50 74 46 74C42 74 40 72 40 68V52H24C20 52 18 50 18 46C18 42 20 40 24 40H40V24C40 20 42 18 46 18Z" fill="rgba(11,60,93,0.92)"/>
  </g>
  <g transform="translate(170,64)">
    <text x="0" y="0" fill="rgba(255,255,255,0.92)" font-family="Poppins, Inter, system-ui, sans-serif" font-size="24" font-weight="800">JFK Medical Center</text>
    <text x="0" y="36" fill="rgba(255,255,255,0.65)" font-family="Inter, system-ui, sans-serif" font-size="16" font-weight="700">Partner</text>
  </g>
</svg>

