<svg width="640" height="240" viewBox="0 0 640 240" fill="none" xmlns="http://www.w3.org/2000/svg">
  <rect x="16" y="16" width="608" height="208" rx="36" fill="white" fill-opacity="0.02"/>
  <rect x="16" y="16" width="608" height="208" rx="36" stroke="rgba(255,255,255,0.18)" stroke-width="2"/>
  <g transform="translate(56,54)">
    <rect x="0" y="0" width="92" height="92" rx="22" fill="rgba(253,184,19,0.16)" stroke="rgba(253,184,19,0.55)" stroke-width="2"/>
    <path d="M46 18C58 18 68 28 68 40C68 55 52 60 46 74C40 60 24 55 24 40C24 28 34 18 46 18Z" fill="rgba(0,168,150,0.55)"/>
    <path d="M46 30L50 40H61L52 46L56 56L46 50L36 56L40 46L31 40H42L46 30Z" fill="rgba(11,60,93,0.92)"/>
  </g>
  <g transform="translate(170,64)">
    <text x="0" y="0" fill="rgba(255,255,255,0.92)" font-family="Poppins, Inter, system-ui, sans-serif" font-size="24" font-weight="800">RREA</text>
    <text x="0" y="36" fill="rgba(255,255,255,0.65)" font-family="Inter, system-ui, sans-serif" font-size="16" font-weight="700">Partner</text>
  </g>
</svg>

